<?xml version="1.0" encoding="UTF-8" standalone="no"?>
<svg
   xmlns:dc="http://purl.org/dc/elements/1.1/"
   xmlns:cc="http://creativecommons.org/ns#"
   xmlns:rdf="http://www.w3.org/1999/02/22-rdf-syntax-ns#"
   xmlns:svg="http://www.w3.org/2000/svg"
   xmlns="http://www.w3.org/2000/svg"
   xmlns:sodipodi="http://sodipodi.sourceforge.net/DTD/sodipodi-0.dtd"
   xmlns:inkscape="http://www.inkscape.org/namespaces/inkscape"
   id="Layer_1"
   data-name="Layer 1"
   viewBox="0 0 250 250"
   version="1.1"
   sodipodi:docname="jetbrains.svg"
   inkscape:version="1.0.2 (e86c8708, 2021-01-15)">
  <metadata
     id="metadata136">
    <rdf:RDF>
      <cc:Work
         rdf:about="">
        <dc:format>image/svg+xml</dc:format>
        <dc:type
           rdf:resource="http://purl.org/dc/dcmitype/StillImage" />
      </cc:Work>
    </rdf:RDF>
  </metadata>
  <sodipodi:namedview
     pagecolor="#ffffff"
     bordercolor="#666666"
     borderopacity="1"
     objecttolerance="10"
     gridtolerance="10"
     guidetolerance="10"
     inkscape:pageopacity="0"
     inkscape:pageshadow="2"
     inkscape:window-width="1607"
     inkscape:window-height="997"
     id="namedview134"
     showgrid="false"
     inkscape:zoom="1.935082"
     inkscape:cx="236.97056"
     inkscape:cy="183.61211"
     inkscape:window-x="73"
     inkscape:window-y="25"
     inkscape:window-maximized="1"
     inkscape:current-layer="Layer_1" />
  <defs
     id="defs110">
    <linearGradient
       id="linear-gradient"
       x1="96.78"
       y1="180.45"
       x2="175.18"
       y2="133.13"
       gradientUnits="userSpaceOnUse">
      <stop
         offset="0"
         stop-color="#fcee39"
         id="stop82" />
      <stop
         offset="1"
         stop-color="#f37b3d"
         id="stop84" />
    </linearGradient>
    <linearGradient
       id="linear-gradient-2"
       x1="113.3"
       y1="66.8"
       x2="184.85"
       y2="129.45"
       gradientUnits="userSpaceOnUse">
      <stop
         offset="0"
         stop-color="#ef5a6b"
         id="stop87" />
      <stop
         offset="0.57"
         stop-color="#f26f4e"
         id="stop89" />
      <stop
         offset="1"
         stop-color="#f37b3d"
         id="stop91" />
    </linearGradient>
    <linearGradient
       id="linear-gradient-3"
       x1="117.88"
       y1="123.53"
       x2="75.47"
       y2="97.05"
       gradientUnits="userSpaceOnUse">
      <stop
         offset="0"
         stop-color="#7c59a4"
         id="stop94" />
      <stop
         offset="0.38"
         stop-color="#af4c92"
         id="stop96" />
      <stop
         offset="0.75"
         stop-color="#dc4183"
         id="stop98" />
      <stop
         offset="0.94"
         stop-color="#ed3d7d"
         id="stop100" />
    </linearGradient>
    <linearGradient
       id="linear-gradient-4"
       x1="117.11"
       y1="63.59"
       x2="75.71"
       y2="97.79"
       gradientUnits="userSpaceOnUse">
      <stop
         offset="0"
         stop-color="#ef5a6b"
         id="stop103" />
      <stop
         offset="0.36"
         stop-color="#ee4e72"
         id="stop105" />
      <stop
         offset="1"
         stop-color="#ed3d7d"
         id="stop107" />
    </linearGradient>
  </defs>
  <title
     id="title112">logo_Jetbrains_4</title>
  <g
     id="g131"
     transform="matrix(1.8931363,0,0,1.8931363,-110.28358,-110.85184)">
    <path
       id="_Path_"
       data-name="&lt;Path&gt;"
       d="m 183.59,131.7 a 4.64,4.64 0 0 0 -6.19,-6.9 v 0 l -83.8,45.86 a 10.13,10.13 0 1 0 9.49,17.83 v 0 c 0.25,-0.16 0.49,-0.33 0.72,-0.51 l 78,-54.84 c 0.47,-0.32 1.54,-1.15 1.82,-1.41 v 0 z"
       fill="url(#linear-gradient)"
       style="fill:url(#linear-gradient)" />
    <path
       id="_Path_2"
       data-name="&lt;Path&gt;"
       d="m 183.69,125 v 0 L 119.94,62.41 a 7.73,7.73 0 0 0 -13.43,5.22 v 0 a 7.71,7.71 0 0 0 2.14,5.37 v 0 0 a 7.82,7.82 0 0 0 1.18,1 l 67.37,57.7 v 0 a 4.6639602,4.6639602 0 0 0 6.49,-6.7 z"
       fill="url(#linear-gradient-2)"
       style="fill:url(#linear-gradient-2)" />
    <path
       id="_Path_3"
       data-name="&lt;Path&gt;"
       d="M 122,119.43 C 121.91,119.36 82.66,88.35 81.85,87.86 v 0 0 A 11.185213,11.185213 0 0 0 70.27,107 v 0 a 11.22,11.22 0 0 0 1.91,0.93 c 0.4,0.15 45.38,18.81 45.38,18.81 v 0 a 4.3,4.3 0 0 0 4.44,-7.31 z"
       fill="url(#linear-gradient-3)"
       style="fill:url(#linear-gradient-3)" />
    <path
       id="_Path_4"
       data-name="&lt;Path&gt;"
       d="m 114.25,59.89 a 7.68,7.68 0 0 0 -4.56,1.5 l -39.88,26.84 -0.23,0.16 h -0.05 v 0 a 11.18,11.18 0 0 0 13.1,18.11 v 0 a 11.15,11.15 0 0 0 1.79,-1.62 L 119,73.74 v 0 a 7.73,7.73 0 0 0 3,-6.09 v 0 a 7.76,7.76 0 0 0 -7.75,-7.76 z"
       fill="url(#linear-gradient-4)"
       style="fill:url(#linear-gradient-4)" />
    <g
       id="_Group_"
       data-name="&lt;Group&gt;">
      <rect
         id="_Path_5"
         data-name="&lt;Path&gt;"
         x="99.519997"
         y="97.300003"
         width="50.959999"
         height="50.959999" />
      <rect
         id="_Path_6"
         data-name="&lt;Path&gt;"
         x="103.92"
         y="138.71001"
         width="19.110001"
         height="3.1800001"
         fill="#ffffff" />
      <g
         id="_Group_2"
         data-name="&lt;Group&gt;">
        <path
           id="_Compound_Path_"
           data-name="&lt;Compound Path&gt;"
           d="m 103.7,110.72 1.48,-1.4 a 1.68,1.68 0 0 0 1.31,0.77 1,1 0 0 0 0.94,-1.16 v -5.26 h 2.29 v 5.27 a 3.09,3.09 0 0 1 -0.82,2.34 3.13,3.13 0 0 1 -2.28,0.84 3.39,3.39 0 0 1 -2.92,-1.4 z"
           fill="#ffffff" />
        <path
           id="_Compound_Path_2"
           data-name="&lt;Compound Path&gt;"
           d="m 110.25,103.67 h 6.68 v 1.95 h -4.4 v 1.27 h 4 v 1.82 h -4 V 110 H 117 v 2 h -6.74 v -8.31 z"
           fill="#ffffff" />
        <path
           id="_Compound_Path_3"
           data-name="&lt;Compound Path&gt;"
           d="m 119.94,105.69 h -2.48 v -2 h 7.27 v 2 h -2.49 V 112 h -2.3 v -6.29 z"
           fill="#ffffff" />
        <path
           id="_Compound_Path_4"
           data-name="&lt;Compound Path&gt;"
           d="m 103.92,113.92 h 4.26 a 3.11,3.11 0 0 1 2.27,0.74 1.87,1.87 0 0 1 0.55,1.34 v 0 a 1.92,1.92 0 0 1 -1.28,1.85 2,2 0 0 1 1.65,2 v 0 c 0,1.42 -1.16,2.29 -3.14,2.29 h -4.28 v -8.31 z m 4.79,2.56 c 0,-0.46 -0.37,-0.71 -1,-0.71 h -1.51 v 1.46 h 1.45 c 0.7,0 1.1,-0.24 1.1,-0.72 v 0 z m -0.79,2.36 h -1.76 v 1.53 h 1.78 c 0.71,0 1.1,-0.27 1.1,-0.76 v 0 c -0.04,-0.47 -0.35,-0.77 -1.13,-0.77 z"
           fill="#ffffff" />
        <path
           id="_Compound_Path_5"
           data-name="&lt;Compound Path&gt;"
           d="m 111.69,113.92 h 3.93 a 3.68,3.68 0 0 1 2.71,0.89 2.59,2.59 0 0 1 0.74,1.93 v 0 a 2.63,2.63 0 0 1 -1.71,2.56 l 2,2.9 h -2.65 L 115,119.71 h -1 v 2.52 h -2.3 v -8.31 z m 3.83,4 a 1,1 0 0 0 1.23,-1 v 0 a 1,1 0 0 0 -1.25,-1 H 114 v 2 h 1.53 z"
           fill="#ffffff" />
        <path
           id="_Compound_Path_6"
           data-name="&lt;Compound Path&gt;"
           d="M 121.75,113.86 H 124 l 3.54,8.36 H 125 l -0.59,-1.49 h -3.22 l -0.59,1.49 h -2.41 z m 2,5.08 -0.93,-2.35 -0.94,2.35 h 1.86 z"
           fill="#ffffff" />
        <path
           id="_Compound_Path_7"
           data-name="&lt;Compound Path&gt;"
           d="m 127.77,113.92 h 2.3 v 8.31 h -2.3 z"
           fill="#ffffff" />
        <path
           id="_Compound_Path_8"
           data-name="&lt;Compound Path&gt;"
           d="m 130.65,113.92 h 2.15 l 3.42,4.39 v -4.39 h 2.28 v 8.31 h -2 l -3.56,-4.56 v 4.56 h -2.28 v -8.31 z"
           fill="#ffffff" />
        <path
           id="_Compound_Path_9"
           data-name="&lt;Compound Path&gt;"
           d="m 138.63,121 1.28,-1.53 a 4.3,4.3 0 0 0 2.69,1 c 0.63,0 1,-0.21 1,-0.57 v 0 c 0,-0.36 -0.27,-0.53 -1.41,-0.81 -1.77,-0.4 -3.13,-0.9 -3.13,-2.6 v 0 c 0,-1.54 1.22,-2.66 3.22,-2.66 a 5.23,5.23 0 0 1 3.42,1.1 l -1.15,1.63 a 4.08,4.08 0 0 0 -2.33,-0.82 c -0.56,0 -0.83,0.23 -0.83,0.53 v 0 c 0,0.38 0.28,0.55 1.45,0.81 1.9,0.42 3.08,1 3.08,2.59 v 0 c 0,1.7 -1.34,2.71 -3.36,2.71 A 5.82,5.82 0 0 1 138.63,121 Z"
           fill="#ffffff" />
      </g>
    </g>
  </g>
</svg>
