<svg id="Layer_1" data-name="Layer 1" xmlns="http://www.w3.org/2000/svg" viewBox="0 0 1000 1000.12"><title>lcb - black</title><path d="M999.91,193.91h0c-.75-5.36-1.53-10.18-2.38-14.75a213.38,213.38,0,0,0-45.47-97.83c-23.55-28.25-53.75-49.58-89.76-63.39-18.53-7.11-45-12.17-78.56-15-29.4-2.5-59.11-2.9-78.93-3H301.33c-19.79.08-49.49.48-78.9,3-33.6,2.85-60,7.91-78.56,15-36,13.81-66.2,35.14-89.76,63.39A213.48,213.48,0,0,0,8.64,179.16c-3.2,17.28-5.44,37.7-6.84,62.43C.61,262.52,0,286.85,0,316V703.81c.22,47.48,1,86.78,8.9,124.32,9.28,44.14,27,78.42,55.71,107.87,35,35.83,74.39,55.56,127.86,64v0a7.83,7.83,0,0,0,1.28.14,8.19,8.19,0,0,0,4.37-1.26q31.88-20,63.08-40.82H654.14c58.49-.33,110.28-1.39,151.68-11.13,38.25-9,66.21-24.78,93.48-52.74,25.25-25.88,40.3-55.46,48.79-95.88,10.28-48.9,10.24-81.06,9.81-388.71-.06-43.27-.13-92-.17-147q20.92-31.18,40.89-62.86l.11-.17h0l0,0A8.18,8.18,0,0,0,999.91,193.91ZM814.33,561.45A33.35,33.35,0,1,1,781,594.8,33.39,33.39,0,0,1,814.33,561.45ZM25.06,824.74c-7.57-36-8.34-74.48-8.56-121V316c0-28.81.61-52.84,1.78-73.47,1.36-24,3.51-43.76,6.59-60.36C31.19,148,45.29,117.67,66.78,91.9c21.74-26.06,49.66-45.76,83-58.56,17.08-6.55,42-11.25,74-14,28.81-2.45,58.07-2.85,77.54-2.93H704.79c19.51.08,48.77.48,77.58,2.93,32,2.72,57,7.42,74,14,33.34,12.8,61.27,32.5,83,58.56C960.9,117.67,975,148,981.33,182.16c.58,3.14,1.12,6.42,1.65,9.92-105,103.15-213.37,120-318.21,136.36-89.22,13.87-173.49,27-241.68,95.06S341.66,575.84,327.64,665c-16.46,104.79-33.53,213.1-136.76,317.91-47.6-8.18-83.07-26.29-114.45-58.47C50,897.37,33.66,865.68,25.06,824.74ZM941.4,409.55c.41,299.58.47,338.07-9.46,385.29-7.81,37.17-21.52,64.24-44.46,87.75-13.29,13.62-26.77,24.06-41.76,32.1l-49.27-60.91V790.45a52.6,52.6,0,1,0-19.26,0V860.6L827.65,923A196.13,196.13,0,0,1,802,930.78c-39.72,9.35-90.52,10.37-147.95,10.69H285.59q52.19-35.75,102.42-74H488.77L537.56,828H600.9a52.61,52.61,0,1,0,0-19.25H530.75L482,848.24H413a2530.8,2530.8,0,0,0,386.7-374.68l5,6.23v63.33a52.6,52.6,0,1,0,19.26,0V473l-11.79-14.56c45.28-55.19,88.45-112.66,129.07-171.71C941.29,331.9,941.34,372.73,941.4,409.55ZM786.82,772.12a33.35,33.35,0,1,1,33.35-33.35A33.39,33.39,0,0,1,786.82,772.12ZM619.23,818.39a33.35,33.35,0,1,1,33.35,33.35A33.38,33.38,0,0,1,619.23,818.39Z" transform="translate(0 0.06)"/></svg>