<?xml version="1.0" encoding="UTF-8" standalone="no"?>
<svg
   xmlns:dc="http://purl.org/dc/elements/1.1/"
   xmlns:cc="http://creativecommons.org/ns#"
   xmlns:rdf="http://www.w3.org/1999/02/22-rdf-syntax-ns#"
   xmlns:svg="http://www.w3.org/2000/svg"
   xmlns="http://www.w3.org/2000/svg"
   xmlns:sodipodi="http://sodipodi.sourceforge.net/DTD/sodipodi-0.dtd"
   xmlns:inkscape="http://www.inkscape.org/namespaces/inkscape"
   version="1.1"
   x="0px"
   y="0px"
   viewBox="0 0 820.23 520.36"
   style="enable-background:new 0 0 820.23 520.36;"
   xml:space="preserve"
   id="svg71"
   sodipodi:docname="logo_black.svg"
   inkscape:version="1.0.2 (e86c8708, 2021-01-15)"><metadata
   id="metadata77"><rdf:RDF><cc:Work
       rdf:about=""><dc:format>image/svg+xml</dc:format><dc:type
         rdf:resource="http://purl.org/dc/dcmitype/StillImage" /></cc:Work></rdf:RDF></metadata><defs
   id="defs75" /><sodipodi:namedview
   pagecolor="#ffffff"
   bordercolor="#666666"
   borderopacity="1"
   objecttolerance="10"
   gridtolerance="10"
   guidetolerance="10"
   inkscape:pageopacity="0"
   inkscape:pageshadow="2"
   inkscape:window-width="705"
   inkscape:window-height="480"
   id="namedview73"
   showgrid="false"
   inkscape:zoom="1.3374297"
   inkscape:cx="410.115"
   inkscape:cy="260.18"
   inkscape:window-x="0"
   inkscape:window-y="25"
   inkscape:window-maximized="0"
   inkscape:current-layer="g52" />
<style
   type="text/css"
   id="style10">
	.st0{fill:#0078FF;}
	.st1{fill:#120E3D;}
	.st2{fill:#414A9E;}
	.st3{fill:#171717;}
	.st4{fill:#7050A1;}
	.st5{fill:#F9F9FA;}
	.st6{fill:#DDE21E;}
	.st7{fill:#FCFAFC;}
	.st8{fill:#FFD03E;}
	.st9{clip-path:url(#SVGID_4_);}
	.st10{clip-path:url(#SVGID_4_);fill:#3D44AC;}
	.st11{clip-path:url(#SVGID_8_);fill:#B08F6E;}
	.st12{fill:none;stroke:#004FA3;stroke-width:4;stroke-miterlimit:10;}
	.st13{fill:none;stroke:#414A9E;stroke-width:3;stroke-miterlimit:10;}
	.st14{fill:none;stroke:#004FA3;stroke-width:10;stroke-miterlimit:10;}
	.st15{fill:#004FA3;}
	.st16{fill:none;stroke:#004FA3;stroke-width:9;stroke-linecap:square;stroke-miterlimit:10;}
	.st17{fill:none;stroke:#004FA3;stroke-width:9;stroke-miterlimit:10;}
	.st18{fill:#FFFFFE;stroke:#004FA3;stroke-width:9;stroke-miterlimit:10;}
	.st19{fill:#FFFFFE;}
	.st20{fill:#231F20;}
	.st21{fill:#0000D4;}
	.st22{fill:#FFFFFF;}
	.st23{fill:#F4F4F4;}
	.st24{fill:#130E3D;}
	.st25{fill:url(#SVGID_35_);}
	.st26{fill:url(#SVGID_36_);}
	.st27{fill:url(#SVGID_37_);}
	.st28{fill:url(#SVGID_38_);}
	.st29{fill:url(#SVGID_39_);}
	.st30{fill:url(#SVGID_40_);}
	.st31{fill:url(#SVGID_41_);}
	.st32{fill:url(#SVGID_42_);}
	.st33{fill:url(#SVGID_43_);}
	.st34{fill:url(#SVGID_44_);}
	.st35{fill:url(#SVGID_45_);}
	.st36{fill:url(#SVGID_46_);}
	.st37{fill:url(#SVGID_47_);}
	.st38{fill:url(#SVGID_48_);}
	.st39{fill:url(#SVGID_51_);}
	.st40{fill:url(#SVGID_52_);}
	.st41{fill:url(#SVGID_53_);}
	.st42{fill:url(#SVGID_54_);}
	.st43{fill:url(#SVGID_55_);}
	.st44{fill:url(#SVGID_56_);}
	.st45{fill:url(#SVGID_57_);}
	.st46{fill:url(#SVGID_58_);}
	.st47{fill:url(#SVGID_61_);}
	.st48{fill:url(#SVGID_62_);}
	.st49{fill:url(#SVGID_63_);}
	.st50{fill:url(#SVGID_64_);}
	.st51{fill:url(#SVGID_65_);}
	.st52{fill:url(#SVGID_66_);}
	.st53{fill:url(#SVGID_67_);}
	.st54{fill:url(#SVGID_70_);}
	.st55{fill:url(#SVGID_71_);}
	.st56{fill:url(#SVGID_72_);}
	.st57{fill:url(#SVGID_73_);}
	.st58{fill:url(#SVGID_74_);}
	.st59{fill:url(#SVGID_75_);}
	.st60{fill:url(#SVGID_76_);}
	.st61{fill:url(#SVGID_77_);}
	.st62{fill:url(#SVGID_80_);}
	.st63{fill:url(#SVGID_81_);}
	.st64{fill:url(#SVGID_82_);}
	.st65{fill:url(#SVGID_83_);}
	.st66{fill:url(#SVGID_84_);}
	.st67{fill:url(#SVGID_87_);}
	.st68{fill:url(#SVGID_88_);}
	.st69{fill:url(#SVGID_89_);}
	.st70{fill:url(#SVGID_90_);}
	.st71{fill:url(#SVGID_91_);}
	.st72{fill:url(#SVGID_92_);}
	.st73{fill:url(#SVGID_93_);}
	.st74{fill:url(#SVGID_94_);}
	.st75{fill:url(#SVGID_95_);}
	.st76{fill:url(#SVGID_96_);}
	.st77{fill:url(#SVGID_97_);}
	.st78{fill:url(#SVGID_98_);}
	.st79{fill:url(#SVGID_101_);}
	.st80{fill:url(#SVGID_102_);}
	.st81{fill:url(#SVGID_103_);}
	.st82{fill:url(#SVGID_104_);}
	.st83{fill:url(#SVGID_105_);}
	.st84{fill:url(#SVGID_106_);}
	.st85{fill:url(#SVGID_107_);}
	.st86{fill:url(#SVGID_108_);}
	.st87{fill:url(#SVGID_111_);}
	.st88{fill:url(#SVGID_112_);}
	.st89{fill:url(#SVGID_113_);}
	.st90{fill:url(#SVGID_114_);}
	.st91{fill:url(#SVGID_115_);}
	.st92{fill:url(#SVGID_116_);}
	.st93{fill:url(#SVGID_117_);}
	.st94{fill:url(#SVGID_118_);}
	.st95{fill:url(#SVGID_119_);}
	.st96{fill:url(#SVGID_120_);}
	.st97{fill:url(#SVGID_121_);}
	.st98{fill:url(#SVGID_122_);}
	.st99{fill:url(#SVGID_123_);}
	.st100{fill:url(#SVGID_124_);}
	.st101{fill:url(#SVGID_125_);}
	.st102{fill:url(#SVGID_126_);}
	.st103{fill:url(#SVGID_127_);}
	.st104{fill:url(#SVGID_130_);}
	.st105{fill:url(#SVGID_133_);}
	.st106{fill:url(#SVGID_134_);}
	.st107{fill:url(#SVGID_135_);}
	.st108{fill:url(#SVGID_136_);}
	.st109{fill:url(#SVGID_137_);}
	.st110{fill:url(#SVGID_138_);}
	.st111{fill:url(#SVGID_139_);}
	.st112{fill:url(#SVGID_140_);}
	.st113{fill:url(#SVGID_141_);}
	.st114{fill:url(#SVGID_142_);}
	.st115{fill:url(#SVGID_143_);}
	.st116{opacity:0.4;}
	.st117{filter:url(#Adobe_OpacityMaskFilter);}
	.st118{opacity:0.75;mask:url(#SVGID_162_);}
	.st119{opacity:0.25;}
	.st120{fill:#FF00FF;}
</style>
<g
   id="Layer_1">
	<g
   id="g40">
		<g
   id="g36">
			<path
   d="M180.65,204.63h14.78v70.55c-7.58,1.44-13.15,2.02-19.2,2.02c-18.05,0-27.45-8.16-27.45-23.81     c0-15.07,9.98-24.86,25.44-24.86c2.4,0,4.22,0.19,6.43,0.77V204.63z M180.65,241.21c-1.73-0.58-3.17-0.77-4.99-0.77     c-7.49,0-11.81,4.61-11.81,12.67c0,7.87,4.13,12.19,11.71,12.19c1.63,0,2.98-0.1,5.09-0.38V241.21z"
   id="path12" />
			<path
   d="M223.66,229.59v34.27c0,11.81-0.86,17.47-3.46,22.37c-2.4,4.7-5.57,7.68-12.09,10.94l-13.73-6.53     c6.53-3.07,9.7-5.76,11.71-9.89c2.11-4.22,2.78-9.12,2.78-21.98v-29.18H223.66z"
   id="path14" />
			<path
   d="M237.58,232.95c6.53-3.07,12.77-4.42,19.58-4.42c7.58,0,12.58,2.02,14.78,5.95c1.25,2.21,1.63,5.09,1.63,11.23v30.05     c-6.62,0.96-14.97,1.63-21.12,1.63c-12.38,0-17.95-4.32-17.95-13.92c0-10.37,7.39-15.17,25.53-16.7v-3.26     c0-2.69-1.34-3.65-5.09-3.65c-5.47,0-11.61,1.54-17.37,4.51V232.95z M260.72,256.47c-9.79,0.96-12.96,2.5-12.96,6.34     c0,2.88,1.82,4.22,5.86,4.22c2.21,0,4.22-0.19,7.1-0.67V256.47z"
   id="path16" />
			<path
   d="M285.58,231.89c8.74-2.3,15.94-3.36,23.23-3.36c7.58,0,13.06,1.73,16.32,5.09c3.07,3.17,4.03,6.62,4.03,14.02v28.99     h-14.78v-28.41c0-5.66-1.92-7.78-7.2-7.78c-2.02,0-3.84,0.19-6.82,1.06v35.13h-14.78V231.89z"
   id="path18" />
			<path
   d="M339.24,284.69c5.18,2.69,10.37,3.94,15.84,3.94c9.7,0,13.82-3.94,13.82-13.34c0-0.1,0-0.19,0-0.29     c-2.88,1.44-5.76,2.02-9.6,2.02c-12.96,0-21.21-8.54-21.21-22.08c0-16.8,12.19-26.3,33.79-26.3c6.34,0,12.19,0.67,19.29,2.11     v11.62c-3.94-0.77-5.38-1.06-8.35-1.34v1.54l0.19,6.24l0.1,8.06c0.1,2.02,0.1,4.03,0.19,6.05c0,1.82,0,2.69,0,4.03     c0,12.67-1.06,18.62-4.22,23.52c-4.61,7.2-12.58,10.75-23.9,10.75c-5.76,0-10.75-0.86-15.93-2.88V284.69z M368.62,240.53     c-0.19,0-0.29,0-0.48,0h-1.06c-2.88-0.1-6.24,0.67-8.54,2.11c-3.55,2.02-5.38,5.66-5.38,10.85c0,7.39,3.65,11.62,10.18,11.62     c2.02,0,3.65-0.38,5.57-0.96v-1.06v-4.03c0-1.73-0.1-3.65-0.1-5.66l-0.1-6.82l-0.1-4.9V240.53z"
   id="path20" />
			<path
   d="M420.26,228.34c14.78,0,23.81,9.31,23.81,24.38c0,15.46-9.41,25.15-24.38,25.15c-14.78,0-23.9-9.31-23.9-24.29     C395.79,238.04,405.19,228.34,420.26,228.34z M419.98,265.97c5.66,0,9.02-4.7,9.02-12.86c0-8.06-3.26-12.86-8.93-12.86     c-5.86,0-9.22,4.7-9.22,12.86C410.86,261.27,414.22,265.97,419.98,265.97z"
   id="path22" />
			<path
   d="M491.11,243.22c-3.36-2.02-6.34-2.88-10.27-2.88c-8.54,0-14.3,4.7-14.3,12.09c0,7.68,5.66,12.58,14.3,12.58     c4.03,0,6.91-0.77,10.75-2.78v12c-4.8,2.4-8.74,3.36-14.5,3.36c-15.74,0-25.63-9.22-25.63-23.9c0-15.07,10.85-25.25,26.78-25.25     c4.8,0,8.25,0.77,12.86,2.78V243.22z"
   id="path24" />
			<path
   d="M521.83,228.34c14.78,0,23.81,9.31,23.81,24.38c0,15.46-9.41,25.15-24.38,25.15c-14.78,0-23.9-9.31-23.9-24.29     C497.35,238.04,506.76,228.34,521.83,228.34z M521.54,265.97c5.66,0,9.02-4.7,9.02-12.86c0-8.06-3.26-12.86-8.93-12.86     c-5.86,0-9.22,4.7-9.22,12.86C512.42,261.27,515.78,265.97,521.54,265.97z"
   id="path26" />
			<path
   d="M555.72,231.89c8.74-2.3,15.94-3.36,23.23-3.36c7.58,0,13.06,1.73,16.32,5.09c3.07,3.17,4.03,6.62,4.03,14.02v28.99     h-14.78v-28.41c0-5.66-1.92-7.78-7.2-7.78c-2.02,0-3.84,0.19-6.82,1.06v35.13h-14.78V231.89z"
   id="path28" />
			<path
   d="M608.42,267.84h8.5v8.78h-8.5V267.84z"
   id="path30" />
			<path
   d="M629.26,266.98c0.24,2.93,2.5,4.51,6.38,4.51c2.93,0,5.62-0.77,7.87-2.26v5.71c-2.83,1.49-5.76,2.21-8.93,2.21     c-7.87,0-12.48-4.51-12.48-12.19c0-7.54,4.71-12.43,11.86-12.43c6.86,0,10.8,4.37,10.8,12.05c0,0.38,0,1.06-0.05,1.87l-0.05,0.53     H629.26z M637.99,261.84c-0.24-2.69-1.63-4.13-4.03-4.13c-2.5,0-4.22,1.58-4.61,4.13H637.99z"
   id="path32" />
			<path
   d="M657.24,253.11v13.54c0,3.02,0.86,3.98,3.79,3.98c1.01,0,2.06-0.14,3.02-0.34v-17.19h7.39v22.66l-0.91,0.14     c-3.98,0.72-6.82,1.01-9.84,1.01c-3.98,0-6.72-0.77-8.45-2.35c-1.78-1.63-2.4-3.65-2.4-8.02v-13.44H657.24z"
   id="path34" />
		</g>
		<rect
   x="208.88"
   y="204.63"
   width="14.78"
   height="15.17"
   id="rect38" />
	</g>
	<g
   id="g52">
		
		
		
		
		
	</g>
	<g
   id="g64">
		<g
   id="g62">
			<path
   d="M237.58,204.43c4.03-1.65,7.8-3.3,10.24-4.63c5.35-2.84,7.4-5.09,7.4-7.93c0-2.58-2.05-4.1-5.42-4.1     c-3.5,0-6.48,1.06-10.11,3.63v-8.92c3.83-2.38,7.47-3.37,12.03-3.37c8.46,0,13.88,4.63,13.88,11.9c0,6.41-3.83,10.44-13.09,13.94     l16.79-0.66v8.53h-31.72V204.43z"
   id="path54" />
			<path
   d="M291.84,179.31c9.72,0,16.19,6.74,16.19,16.85c0,10.57-6.67,17.51-16.92,17.51c-9.85,0-16.32-6.74-16.32-16.92     C274.79,186.25,281.6,179.31,291.84,179.31z M291.25,205.49c3.97,0,6.41-3.44,6.41-8.92c0-5.62-2.31-9.05-6.08-9.05     c-3.9,0-6.41,3.57-6.41,8.99C285.16,202.12,287.48,205.49,291.25,205.49z"
   id="path56" />
			<path
   d="M313.91,204.43c4.03-1.65,7.8-3.3,10.24-4.63c5.35-2.84,7.4-5.09,7.4-7.93c0-2.58-2.05-4.1-5.42-4.1     c-3.5,0-6.48,1.06-10.11,3.63v-8.92c3.83-2.38,7.47-3.37,12.03-3.37c8.46,0,13.88,4.63,13.88,11.9c0,6.41-3.83,10.44-13.09,13.94     l16.79-0.66v8.53h-31.72V204.43z"
   id="path58" />
			<path
   d="M362.02,191.14l-11.76,3.5v-9.05l21.94-6.74v33.97h-10.18V191.14z"
   id="path60" />
		</g>
	</g>
</g>
<g
   id="Layer_3">
</g>
<g
   id="Layer_2">
</g>
<g
   id="Layer_4">
</g>
<g
   id="Layer_5">
</g>
</svg>
