<?xml version="1.0" encoding="UTF-8" standalone="no"?>
<svg
   xmlns:dc="http://purl.org/dc/elements/1.1/"
   xmlns:cc="http://creativecommons.org/ns#"
   xmlns:rdf="http://www.w3.org/1999/02/22-rdf-syntax-ns#"
   xmlns:svg="http://www.w3.org/2000/svg"
   xmlns="http://www.w3.org/2000/svg"
   xmlns:sodipodi="http://sodipodi.sourceforge.net/DTD/sodipodi-0.dtd"
   xmlns:inkscape="http://www.inkscape.org/namespaces/inkscape"
   version="1.1"
   x="0px"
   y="0px"
   viewBox="0 0 820.23 520.36"
   style="enable-background:new 0 0 820.23 520.36;"
   xml:space="preserve"
   id="svg71"
   sodipodi:docname="logo_blue.svg"
   inkscape:version="1.0.2 (e86c8708, 2021-01-15)"><metadata
   id="metadata77"><rdf:RDF><cc:Work
       rdf:about=""><dc:format>image/svg+xml</dc:format><dc:type
         rdf:resource="http://purl.org/dc/dcmitype/StillImage" /></cc:Work></rdf:RDF></metadata><defs
   id="defs75" /><sodipodi:namedview
   pagecolor="#ffffff"
   bordercolor="#666666"
   borderopacity="1"
   objecttolerance="10"
   gridtolerance="10"
   guidetolerance="10"
   inkscape:pageopacity="0"
   inkscape:pageshadow="2"
   inkscape:window-width="739"
   inkscape:window-height="480"
   id="namedview73"
   showgrid="false"
   inkscape:zoom="1.3374297"
   inkscape:cx="410.115"
   inkscape:cy="260.18"
   inkscape:window-x="0"
   inkscape:window-y="25"
   inkscape:window-maximized="0"
   inkscape:current-layer="Layer_1" />
<style
   type="text/css"
   id="style10">
	.st0{fill:#0078FF;}
	.st1{fill:#120E3D;}
	.st2{fill:#414A9E;}
	.st3{fill:#171717;}
	.st4{fill:#7050A1;}
	.st5{fill:#F9F9FA;}
	.st6{fill:#DDE21E;}
	.st7{fill:#FCFAFC;}
	.st8{fill:#FFD03E;}
	.st9{clip-path:url(#SVGID_4_);}
	.st10{clip-path:url(#SVGID_4_);fill:#3D44AC;}
	.st11{clip-path:url(#SVGID_8_);fill:#B08F6E;}
	.st12{fill:none;stroke:#004FA3;stroke-width:4;stroke-miterlimit:10;}
	.st13{fill:none;stroke:#414A9E;stroke-width:3;stroke-miterlimit:10;}
	.st14{fill:none;stroke:#004FA3;stroke-width:10;stroke-miterlimit:10;}
	.st15{fill:#004FA3;}
	.st16{fill:none;stroke:#004FA3;stroke-width:9;stroke-linecap:square;stroke-miterlimit:10;}
	.st17{fill:none;stroke:#004FA3;stroke-width:9;stroke-miterlimit:10;}
	.st18{fill:#FFFFFE;stroke:#004FA3;stroke-width:9;stroke-miterlimit:10;}
	.st19{fill:#FFFFFE;}
	.st20{fill:#231F20;}
	.st21{fill:#0000D4;}
	.st22{fill:#FFFFFF;}
	.st23{fill:#F4F4F4;}
	.st24{fill:#130E3D;}
	.st25{fill:url(#SVGID_35_);}
	.st26{fill:url(#SVGID_36_);}
	.st27{fill:url(#SVGID_37_);}
	.st28{fill:url(#SVGID_38_);}
	.st29{fill:url(#SVGID_39_);}
	.st30{fill:url(#SVGID_40_);}
	.st31{fill:url(#SVGID_41_);}
	.st32{fill:url(#SVGID_42_);}
	.st33{fill:url(#SVGID_43_);}
	.st34{fill:url(#SVGID_44_);}
	.st35{fill:url(#SVGID_45_);}
	.st36{fill:url(#SVGID_46_);}
	.st37{fill:url(#SVGID_47_);}
	.st38{fill:url(#SVGID_48_);}
	.st39{fill:url(#SVGID_51_);}
	.st40{fill:url(#SVGID_52_);}
	.st41{fill:url(#SVGID_53_);}
	.st42{fill:url(#SVGID_54_);}
	.st43{fill:url(#SVGID_55_);}
	.st44{fill:url(#SVGID_56_);}
	.st45{fill:url(#SVGID_57_);}
	.st46{fill:url(#SVGID_58_);}
	.st47{fill:url(#SVGID_61_);}
	.st48{fill:url(#SVGID_62_);}
	.st49{fill:url(#SVGID_63_);}
	.st50{fill:url(#SVGID_64_);}
	.st51{fill:url(#SVGID_65_);}
	.st52{fill:url(#SVGID_66_);}
	.st53{fill:url(#SVGID_67_);}
	.st54{fill:url(#SVGID_70_);}
	.st55{fill:url(#SVGID_71_);}
	.st56{fill:url(#SVGID_72_);}
	.st57{fill:url(#SVGID_73_);}
	.st58{fill:url(#SVGID_74_);}
	.st59{fill:url(#SVGID_75_);}
	.st60{fill:url(#SVGID_76_);}
	.st61{fill:url(#SVGID_77_);}
	.st62{fill:url(#SVGID_80_);}
	.st63{fill:url(#SVGID_81_);}
	.st64{fill:url(#SVGID_82_);}
	.st65{fill:url(#SVGID_83_);}
	.st66{fill:url(#SVGID_84_);}
	.st67{fill:url(#SVGID_87_);}
	.st68{fill:url(#SVGID_88_);}
	.st69{fill:url(#SVGID_89_);}
	.st70{fill:url(#SVGID_90_);}
	.st71{fill:url(#SVGID_91_);}
	.st72{fill:url(#SVGID_92_);}
	.st73{fill:url(#SVGID_93_);}
	.st74{fill:url(#SVGID_94_);}
	.st75{fill:url(#SVGID_95_);}
	.st76{fill:url(#SVGID_96_);}
	.st77{fill:url(#SVGID_97_);}
	.st78{fill:url(#SVGID_98_);}
	.st79{fill:url(#SVGID_101_);}
	.st80{fill:url(#SVGID_102_);}
	.st81{fill:url(#SVGID_103_);}
	.st82{fill:url(#SVGID_104_);}
	.st83{fill:url(#SVGID_105_);}
	.st84{fill:url(#SVGID_106_);}
	.st85{fill:url(#SVGID_107_);}
	.st86{fill:url(#SVGID_108_);}
	.st87{fill:url(#SVGID_111_);}
	.st88{fill:url(#SVGID_112_);}
	.st89{fill:url(#SVGID_113_);}
	.st90{fill:url(#SVGID_114_);}
	.st91{fill:url(#SVGID_115_);}
	.st92{fill:url(#SVGID_116_);}
	.st93{fill:url(#SVGID_117_);}
	.st94{fill:url(#SVGID_118_);}
	.st95{fill:url(#SVGID_119_);}
	.st96{fill:url(#SVGID_120_);}
	.st97{fill:url(#SVGID_121_);}
	.st98{fill:url(#SVGID_122_);}
	.st99{fill:url(#SVGID_123_);}
	.st100{fill:url(#SVGID_124_);}
	.st101{fill:url(#SVGID_125_);}
	.st102{fill:url(#SVGID_126_);}
	.st103{fill:url(#SVGID_127_);}
	.st104{fill:url(#SVGID_130_);}
	.st105{fill:url(#SVGID_133_);}
	.st106{fill:url(#SVGID_134_);}
	.st107{fill:url(#SVGID_135_);}
	.st108{fill:url(#SVGID_136_);}
	.st109{fill:url(#SVGID_137_);}
	.st110{fill:url(#SVGID_138_);}
	.st111{fill:url(#SVGID_139_);}
	.st112{fill:url(#SVGID_140_);}
	.st113{fill:url(#SVGID_141_);}
	.st114{fill:url(#SVGID_142_);}
	.st115{fill:url(#SVGID_143_);}
	.st116{opacity:0.4;}
	.st117{filter:url(#Adobe_OpacityMaskFilter);}
	.st118{opacity:0.75;mask:url(#SVGID_162_);}
	.st119{opacity:0.25;}
	.st120{fill:#FF00FF;}
</style>
<g
   id="Layer_1">
	<g
   id="g40">
		<g
   id="g36">
			<path
   class="st0"
   d="m 180.65,204.63 h 14.78 v 70.55 c -7.58,1.44 -13.15,2.02 -19.2,2.02 -18.05,0 -27.45,-8.16 -27.45,-23.81 0,-15.07 9.98,-24.86 25.44,-24.86 2.4,0 4.22,0.19 6.43,0.77 z m 0,36.58 c -1.73,-0.58 -3.17,-0.77 -4.99,-0.77 -7.49,0 -11.81,4.61 -11.81,12.67 0,7.87 4.13,12.19 11.71,12.19 1.63,0 2.98,-0.1 5.09,-0.38 z"
   id="path12" />
			<path
   class="st0"
   d="m 223.66,229.59 v 34.27 c 0,11.81 -0.86,17.47 -3.46,22.37 -2.4,4.7 -5.57,7.68 -12.09,10.94 l -13.73,-6.53 c 6.53,-3.07 9.7,-5.76 11.71,-9.89 2.11,-4.22 2.78,-9.12 2.78,-21.98 v -29.18 z"
   id="path14" />
			<path
   class="st0"
   d="m 237.58,232.95 c 6.53,-3.07 12.77,-4.42 19.58,-4.42 7.58,0 12.58,2.02 14.78,5.95 1.25,2.21 1.63,5.09 1.63,11.23 v 30.05 c -6.62,0.96 -14.97,1.63 -21.12,1.63 -12.38,0 -17.95,-4.32 -17.95,-13.92 0,-10.37 7.39,-15.17 25.53,-16.7 v -3.26 c 0,-2.69 -1.34,-3.65 -5.09,-3.65 -5.47,0 -11.61,1.54 -17.37,4.51 v -11.42 z m 23.14,23.52 c -9.79,0.96 -12.96,2.5 -12.96,6.34 0,2.88 1.82,4.22 5.86,4.22 2.21,0 4.22,-0.19 7.1,-0.67 z"
   id="path16" />
			<path
   class="st0"
   d="m 285.58,231.89 c 8.74,-2.3 15.94,-3.36 23.23,-3.36 7.58,0 13.06,1.73 16.32,5.09 3.07,3.17 4.03,6.62 4.03,14.02 v 28.99 h -14.78 v -28.41 c 0,-5.66 -1.92,-7.78 -7.2,-7.78 -2.02,0 -3.84,0.19 -6.82,1.06 v 35.13 h -14.78 z"
   id="path18" />
			<path
   class="st0"
   d="m 339.24,284.69 c 5.18,2.69 10.37,3.94 15.84,3.94 9.7,0 13.82,-3.94 13.82,-13.34 0,-0.1 0,-0.19 0,-0.29 -2.88,1.44 -5.76,2.02 -9.6,2.02 -12.96,0 -21.21,-8.54 -21.21,-22.08 0,-16.8 12.19,-26.3 33.79,-26.3 6.34,0 12.19,0.67 19.29,2.11 v 11.62 c -3.94,-0.77 -5.38,-1.06 -8.35,-1.34 v 1.54 l 0.19,6.24 0.1,8.06 c 0.1,2.02 0.1,4.03 0.19,6.05 0,1.82 0,2.69 0,4.03 0,12.67 -1.06,18.62 -4.22,23.52 -4.61,7.2 -12.58,10.75 -23.9,10.75 -5.76,0 -10.75,-0.86 -15.93,-2.88 v -13.65 z m 29.38,-44.16 c -0.19,0 -0.29,0 -0.48,0 h -1.06 c -2.88,-0.1 -6.24,0.67 -8.54,2.11 -3.55,2.02 -5.38,5.66 -5.38,10.85 0,7.39 3.65,11.62 10.18,11.62 2.02,0 3.65,-0.38 5.57,-0.96 v -1.06 -4.03 c 0,-1.73 -0.1,-3.65 -0.1,-5.66 l -0.1,-6.82 -0.1,-4.9 v -1.15 z"
   id="path20" />
			<path
   class="st0"
   d="m 420.26,228.34 c 14.78,0 23.81,9.31 23.81,24.38 0,15.46 -9.41,25.15 -24.38,25.15 -14.78,0 -23.9,-9.31 -23.9,-24.29 0,-15.54 9.4,-25.24 24.47,-25.24 z m -0.28,37.63 c 5.66,0 9.02,-4.7 9.02,-12.86 0,-8.06 -3.26,-12.86 -8.93,-12.86 -5.86,0 -9.22,4.7 -9.22,12.86 0.01,8.16 3.37,12.86 9.13,12.86 z"
   id="path22" />
			<path
   class="st0"
   d="m 491.11,243.22 c -3.36,-2.02 -6.34,-2.88 -10.27,-2.88 -8.54,0 -14.3,4.7 -14.3,12.09 0,7.68 5.66,12.58 14.3,12.58 4.03,0 6.91,-0.77 10.75,-2.78 v 12 c -4.8,2.4 -8.74,3.36 -14.5,3.36 -15.74,0 -25.63,-9.22 -25.63,-23.9 0,-15.07 10.85,-25.25 26.78,-25.25 4.8,0 8.25,0.77 12.86,2.78 v 12 z"
   id="path24" />
			<path
   class="st0"
   d="m 521.83,228.34 c 14.78,0 23.81,9.31 23.81,24.38 0,15.46 -9.41,25.15 -24.38,25.15 -14.78,0 -23.9,-9.31 -23.9,-24.29 -0.01,-15.54 9.4,-25.24 24.47,-25.24 z m -0.29,37.63 c 5.66,0 9.02,-4.7 9.02,-12.86 0,-8.06 -3.26,-12.86 -8.93,-12.86 -5.86,0 -9.22,4.7 -9.22,12.86 0.01,8.16 3.37,12.86 9.13,12.86 z"
   id="path26" />
			<path
   class="st0"
   d="m 555.72,231.89 c 8.74,-2.3 15.94,-3.36 23.23,-3.36 7.58,0 13.06,1.73 16.32,5.09 3.07,3.17 4.03,6.62 4.03,14.02 v 28.99 h -14.78 v -28.41 c 0,-5.66 -1.92,-7.78 -7.2,-7.78 -2.02,0 -3.84,0.19 -6.82,1.06 v 35.13 h -14.78 z"
   id="path28" />
			<path
   class="st0"
   d="m 608.42,267.84 h 8.5 v 8.78 h -8.5 z"
   id="path30" />
			<path
   class="st0"
   d="m 629.26,266.98 c 0.24,2.93 2.5,4.51 6.38,4.51 2.93,0 5.62,-0.77 7.87,-2.26 v 5.71 c -2.83,1.49 -5.76,2.21 -8.93,2.21 -7.87,0 -12.48,-4.51 -12.48,-12.19 0,-7.54 4.71,-12.43 11.86,-12.43 6.86,0 10.8,4.37 10.8,12.05 0,0.38 0,1.06 -0.05,1.87 l -0.05,0.53 z m 8.73,-5.14 c -0.24,-2.69 -1.63,-4.13 -4.03,-4.13 -2.5,0 -4.22,1.58 -4.61,4.13 z"
   id="path32" />
			<path
   class="st0"
   d="m 657.24,253.11 v 13.54 c 0,3.02 0.86,3.98 3.79,3.98 1.01,0 2.06,-0.14 3.02,-0.34 V 253.1 h 7.39 v 22.66 l -0.91,0.14 c -3.98,0.72 -6.82,1.01 -9.84,1.01 -3.98,0 -6.72,-0.77 -8.45,-2.35 -1.78,-1.63 -2.4,-3.65 -2.4,-8.02 V 253.1 h 7.4 z"
   id="path34" />
		</g>
		<rect
   x="208.88"
   y="204.63"
   class="st0"
   width="14.78"
   height="15.17"
   id="rect38" />
	</g>
	
	<g
   id="g64">
		<g
   id="g62">
			<path
   class="st0"
   d="m 237.58,204.43 c 4.03,-1.65 7.8,-3.3 10.24,-4.63 5.35,-2.84 7.4,-5.09 7.4,-7.93 0,-2.58 -2.05,-4.1 -5.42,-4.1 -3.5,0 -6.48,1.06 -10.11,3.63 v -8.92 c 3.83,-2.38 7.47,-3.37 12.03,-3.37 8.46,0 13.88,4.63 13.88,11.9 0,6.41 -3.83,10.44 -13.09,13.94 l 16.79,-0.66 v 8.53 h -31.72 z"
   id="path54" />
			<path
   class="st0"
   d="m 291.84,179.31 c 9.72,0 16.19,6.74 16.19,16.85 0,10.57 -6.67,17.51 -16.92,17.51 -9.85,0 -16.32,-6.74 -16.32,-16.92 0,-10.5 6.81,-17.44 17.05,-17.44 z m -0.59,26.18 c 3.97,0 6.41,-3.44 6.41,-8.92 0,-5.62 -2.31,-9.05 -6.08,-9.05 -3.9,0 -6.41,3.57 -6.41,8.99 -0.01,5.61 2.31,8.98 6.08,8.98 z"
   id="path56" />
			<path
   class="st0"
   d="m 313.91,204.43 c 4.03,-1.65 7.8,-3.3 10.24,-4.63 5.35,-2.84 7.4,-5.09 7.4,-7.93 0,-2.58 -2.05,-4.1 -5.42,-4.1 -3.5,0 -6.48,1.06 -10.11,3.63 v -8.92 c 3.83,-2.38 7.47,-3.37 12.03,-3.37 8.46,0 13.88,4.63 13.88,11.9 0,6.41 -3.83,10.44 -13.09,13.94 l 16.79,-0.66 v 8.53 h -31.72 z"
   id="path58" />
			<path
   class="st0"
   d="m 362.02,191.14 -11.76,3.5 v -9.05 l 21.94,-6.74 v 33.97 h -10.18 z"
   id="path60" />
		</g>
	</g>
</g>
<g
   id="Layer_3">
</g>
<g
   id="Layer_2">
</g>
<g
   id="Layer_4">
</g>
<g
   id="Layer_5">
</g>
</svg>
