<svg xmlns="http://www.w3.org/2000/svg" version="1.1" id="Layer_1" x="0" y="0" viewBox="0 0 820.2 520.4" xml:space="preserve"><style type="text/css" id="style10">.st0{fill:#fff}</style><g id="Layer_1_1_"><g id="g40"><g id="g36"><path class="st0" d="M180.6 204.6h14.8v70.5c-7.6 1.4-13.1 2-19.2 2-18.1 0-27.4-8.2-27.4-23.8 0-15.1 10-24.9 25.4-24.9 2.4 0 4.2.2 6.4.8v-24.6zm0 36.6c-1.7-.6-3.2-.8-5-.8-7.5 0-11.8 4.6-11.8 12.7 0 7.9 4.1 12.2 11.7 12.2 1.6 0 3-.1 5.1-.4v-23.7z" id="path12"/><path class="st0" d="M223.7 229.6v34.3c0 11.8-.9 17.5-3.5 22.4-2.4 4.7-5.6 7.7-12.1 10.9l-13.7-6.5c6.5-3.1 9.7-5.8 11.7-9.9 2.1-4.2 2.8-9.1 2.8-22v-29.2h14.8z" id="path14"/><path class="st0" d="M237.6 232.9c6.5-3.1 12.8-4.4 19.6-4.4 7.6 0 12.6 2 14.8 5.9 1.2 2.2 1.6 5.1 1.6 11.2v30c-6.6 1-15 1.6-21.1 1.6-12.4 0-17.9-4.3-17.9-13.9 0-10.4 7.4-15.2 25.5-16.7v-3.3c0-2.7-1.3-3.6-5.1-3.6-5.5 0-11.6 1.5-17.4 4.5v-11.3zm23.1 23.6c-9.8 1-13 2.5-13 6.3 0 2.9 1.8 4.2 5.9 4.2 2.2 0 4.2-.2 7.1-.7v-9.8z" id="path16"/><path class="st0" d="M285.6 231.9c8.7-2.3 15.9-3.4 23.2-3.4 7.6 0 13.1 1.7 16.3 5.1 3.1 3.2 4 6.6 4 14v29h-14.8v-28.4c0-5.7-1.9-7.8-7.2-7.8-2 0-3.8.2-6.8 1.1v35.1h-14.8v-44.7z" id="path18"/><path class="st0" d="M339.2 284.7c5.2 2.7 10.4 3.9 15.8 3.9 9.7 0 13.8-3.9 13.8-13.3v-.3c-2.9 1.4-5.8 2-9.6 2-13 0-21.2-8.5-21.2-22.1 0-16.8 12.2-26.3 33.8-26.3 6.3 0 12.2.7 19.3 2.1v11.6c-3.9-.8-5.4-1.1-8.4-1.3v1.5l.2 6.2.1 8.1c.1 2 .1 4 .2 6v4c0 12.7-1.1 18.6-4.2 23.5-4.6 7.2-12.6 10.8-23.9 10.8-5.8 0-10.8-.9-15.9-2.9v-13.5zm29.4-44.2H367c-2.9-.1-6.2.7-8.5 2.1-3.5 2-5.4 5.7-5.4 10.9 0 7.4 3.6 11.6 10.2 11.6 2 0 3.6-.4 5.6-1V259c0-1.7-.1-3.6-.1-5.7l-.1-6.8-.1-4.9v-1.1z" id="path20"/><path class="st0" d="M420.3 228.3c14.8 0 23.8 9.3 23.8 24.4 0 15.5-9.4 25.1-24.4 25.1-14.8 0-23.9-9.3-23.9-24.3 0-15.5 9.4-25.2 24.5-25.2zM420 266c5.7 0 9-4.7 9-12.9 0-8.1-3.3-12.9-8.9-12.9-5.9 0-9.2 4.7-9.2 12.9s3.3 12.9 9.1 12.9z" id="path22"/><path class="st0" d="M491.1 243.2c-3.4-2-6.3-2.9-10.3-2.9-8.5 0-14.3 4.7-14.3 12.1 0 7.7 5.7 12.6 14.3 12.6 4 0 6.9-.8 10.8-2.8v12c-4.8 2.4-8.7 3.4-14.5 3.4-15.7 0-25.6-9.2-25.6-23.9 0-15.1 10.9-25.2 26.8-25.2 4.8 0 8.2.8 12.9 2.8l-.1 11.9z" id="path24"/><path class="st0" d="M521.8 228.3c14.8 0 23.8 9.3 23.8 24.4 0 15.5-9.4 25.1-24.4 25.1-14.8 0-23.9-9.3-23.9-24.3.1-15.5 9.5-25.2 24.5-25.2zm-.3 37.7c5.7 0 9-4.7 9-12.9 0-8.1-3.3-12.9-8.9-12.9-5.9 0-9.2 4.7-9.2 12.9s3.4 12.9 9.1 12.9z" id="path26"/><path class="st0" d="M555.7 231.9c8.7-2.3 15.9-3.4 23.2-3.4 7.6 0 13.1 1.7 16.3 5.1 3.1 3.2 4 6.6 4 14v29h-14.8v-28.4c0-5.7-1.9-7.8-7.2-7.8-2 0-3.8.2-6.8 1.1v35.1h-14.8l.1-44.7z" id="path28"/><path class="st0" d="M608.4 267.8h8.5v8.8h-8.5v-8.8z" id="path30"/><path class="st0" d="M629.3 267c.2 2.9 2.5 4.5 6.4 4.5 2.9 0 5.6-.8 7.9-2.3v5.7c-2.8 1.5-5.8 2.2-8.9 2.2-7.9 0-12.5-4.5-12.5-12.2 0-7.5 4.7-12.4 11.9-12.4 6.9 0 10.8 4.4 10.8 12v2.4l-15.6.1zm8.7-5.2c-.2-2.7-1.6-4.1-4-4.1-2.5 0-4.2 1.6-4.6 4.1h8.6z" id="path32"/><path class="st0" d="M657.2 253.1v13.5c0 3 .9 4 3.8 4 1 0 2.1-.1 3-.3v-17.2h7.4v22.7l-.9.1c-4 .7-6.8 1-9.8 1-4 0-6.7-.8-8.5-2.4-1.8-1.6-2.4-3.6-2.4-8v-13.4h7.4z" id="path34"/></g><path class="st0" id="rect38" d="M208.9 204.6h14.8v15.2h-14.8z"/></g><g id="g64"><g id="g62"><path class="st0" d="M237.6 204.4c4-1.6 7.8-3.3 10.2-4.6 5.4-2.8 7.4-5.1 7.4-7.9 0-2.6-2.1-4.1-5.4-4.1-3.5 0-6.5 1.1-10.1 3.6v-8.9c3.8-2.4 7.5-3.4 12-3.4 8.5 0 13.9 4.6 13.9 11.9 0 6.4-3.8 10.4-13.1 13.9l16.8-.7v8.5h-31.7v-8.3z" id="path54"/><path class="st0" d="M291.8 179.3c9.7 0 16.2 6.7 16.2 16.9 0 10.6-6.7 17.5-16.9 17.5-9.9 0-16.3-6.7-16.3-16.9 0-10.6 6.8-17.5 17-17.5zm-.6 26.2c4 0 6.4-3.4 6.4-8.9 0-5.6-2.3-9.1-6.1-9.1-3.9 0-6.4 3.6-6.4 9 .1 5.6 2.4 9 6.1 9z" id="path56"/><path class="st0" d="M313.9 204.4c4-1.6 7.8-3.3 10.2-4.6 5.4-2.8 7.4-5.1 7.4-7.9 0-2.6-2-4.1-5.4-4.1-3.5 0-6.5 1.1-10.1 3.6v-8.9c3.8-2.4 7.5-3.4 12-3.4 8.5 0 13.9 4.6 13.9 11.9 0 6.4-3.8 10.4-13.1 13.9l16.8-.7v8.5h-31.7v-8.3z" id="path58"/><path class="st0" d="M362 191.1l-11.8 3.5v-9.1l21.9-6.7v34H362v-21.7z" id="path60"/></g></g></g></svg>