<svg xmlns="http://www.w3.org/2000/svg" version="1.1" x="0" y="0" viewBox="0 0 820.23 520.36" xml:space="preserve" id="svg71"><style type="text/css" id="style10">.st0{fill:#0078ff}</style><g id="Layer_1"><g id="g40"><g id="g36"><path class="st0" d="M180.65 204.63h14.78v70.55c-7.58 1.44-13.15 2.02-19.2 2.02-18.05 0-27.45-8.16-27.45-23.81 0-15.07 9.98-24.86 25.44-24.86 2.4 0 4.22.19 6.43.77zm0 36.58c-1.73-.58-3.17-.77-4.99-.77-7.49 0-11.81 4.61-11.81 12.67 0 7.87 4.13 12.19 11.71 12.19 1.63 0 2.98-.1 5.09-.38z" id="path12"/><path class="st0" d="M223.66 229.59v34.27c0 11.81-.86 17.47-3.46 22.37-2.4 4.7-5.57 7.68-12.09 10.94l-13.73-6.53c6.53-3.07 9.7-5.76 11.71-9.89 2.11-4.22 2.78-9.12 2.78-21.98v-29.18z" id="path14"/><path class="st0" d="M237.58 232.95c6.53-3.07 12.77-4.42 19.58-4.42 7.58 0 12.58 2.02 14.78 5.95 1.25 2.21 1.63 5.09 1.63 11.23v30.05c-6.62.96-14.97 1.63-21.12 1.63-12.38 0-17.95-4.32-17.95-13.92 0-10.37 7.39-15.17 25.53-16.7v-3.26c0-2.69-1.34-3.65-5.09-3.65-5.47 0-11.61 1.54-17.37 4.51v-11.42zm23.14 23.52c-9.79.96-12.96 2.5-12.96 6.34 0 2.88 1.82 4.22 5.86 4.22 2.21 0 4.22-.19 7.1-.67z" id="path16"/><path class="st0" d="M285.58 231.89c8.74-2.3 15.94-3.36 23.23-3.36 7.58 0 13.06 1.73 16.32 5.09 3.07 3.17 4.03 6.62 4.03 14.02v28.99h-14.78v-28.41c0-5.66-1.92-7.78-7.2-7.78-2.02 0-3.84.19-6.82 1.06v35.13h-14.78z" id="path18"/><path class="st0" d="M339.24 284.69c5.18 2.69 10.37 3.94 15.84 3.94 9.7 0 13.82-3.94 13.82-13.34V275c-2.88 1.44-5.76 2.02-9.6 2.02-12.96 0-21.21-8.54-21.21-22.08 0-16.8 12.19-26.3 33.79-26.3 6.34 0 12.19.67 19.29 2.11v11.62c-3.94-.77-5.38-1.06-8.35-1.34v1.54l.19 6.24.1 8.06c.1 2.02.1 4.03.19 6.05v4.03c0 12.67-1.06 18.62-4.22 23.52-4.61 7.2-12.58 10.75-23.9 10.75-5.76 0-10.75-.86-15.93-2.88v-13.65zm29.38-44.16h-1.54c-2.88-.1-6.24.67-8.54 2.11-3.55 2.02-5.38 5.66-5.38 10.85 0 7.39 3.65 11.62 10.18 11.62 2.02 0 3.65-.38 5.57-.96v-5.09c0-1.73-.1-3.65-.1-5.66l-.1-6.82-.1-4.9v-1.15z" id="path20"/><path class="st0" d="M420.26 228.34c14.78 0 23.81 9.31 23.81 24.38 0 15.46-9.41 25.15-24.38 25.15-14.78 0-23.9-9.31-23.9-24.29 0-15.54 9.4-25.24 24.47-25.24zm-.28 37.63c5.66 0 9.02-4.7 9.02-12.86 0-8.06-3.26-12.86-8.93-12.86-5.86 0-9.22 4.7-9.22 12.86.01 8.16 3.37 12.86 9.13 12.86z" id="path22"/><path class="st0" d="M491.11 243.22c-3.36-2.02-6.34-2.88-10.27-2.88-8.54 0-14.3 4.7-14.3 12.09 0 7.68 5.66 12.58 14.3 12.58 4.03 0 6.91-.77 10.75-2.78v12c-4.8 2.4-8.74 3.36-14.5 3.36-15.74 0-25.63-9.22-25.63-23.9 0-15.07 10.85-25.25 26.78-25.25 4.8 0 8.25.77 12.86 2.78v12z" id="path24"/><path class="st0" d="M521.83 228.34c14.78 0 23.81 9.31 23.81 24.38 0 15.46-9.41 25.15-24.38 25.15-14.78 0-23.9-9.31-23.9-24.29-.01-15.54 9.4-25.24 24.47-25.24zm-.29 37.63c5.66 0 9.02-4.7 9.02-12.86 0-8.06-3.26-12.86-8.93-12.86-5.86 0-9.22 4.7-9.22 12.86.01 8.16 3.37 12.86 9.13 12.86z" id="path26"/><path class="st0" d="M555.72 231.89c8.74-2.3 15.94-3.36 23.23-3.36 7.58 0 13.06 1.73 16.32 5.09 3.07 3.17 4.03 6.62 4.03 14.02v28.99h-14.78v-28.41c0-5.66-1.92-7.78-7.2-7.78-2.02 0-3.84.19-6.82 1.06v35.13h-14.78z" id="path28"/><path class="st0" d="M608.42 267.84h8.5v8.78h-8.5z" id="path30"/><path class="st0" d="M629.26 266.98c.24 2.93 2.5 4.51 6.38 4.51 2.93 0 5.62-.77 7.87-2.26v5.71c-2.83 1.49-5.76 2.21-8.93 2.21-7.87 0-12.48-4.51-12.48-12.19 0-7.54 4.71-12.43 11.86-12.43 6.86 0 10.8 4.37 10.8 12.05 0 .38 0 1.06-.05 1.87l-.05.53zm8.73-5.14c-.24-2.69-1.63-4.13-4.03-4.13-2.5 0-4.22 1.58-4.61 4.13z" id="path32"/><path class="st0" d="M657.24 253.11v13.54c0 3.02.86 3.98 3.79 3.98 1.01 0 2.06-.14 3.02-.34V253.1h7.39v22.66l-.91.14c-3.98.72-6.82 1.01-9.84 1.01-3.98 0-6.72-.77-8.45-2.35-1.78-1.63-2.4-3.65-2.4-8.02V253.1h7.4z" id="path34"/></g><path class="st0" id="rect38" d="M208.88 204.63h14.78v15.17h-14.78z"/></g><g id="g64"><g id="g62"><path class="st0" d="M237.58 204.43c4.03-1.65 7.8-3.3 10.24-4.63 5.35-2.84 7.4-5.09 7.4-7.93 0-2.58-2.05-4.1-5.42-4.1-3.5 0-6.48 1.06-10.11 3.63v-8.92c3.83-2.38 7.47-3.37 12.03-3.37 8.46 0 13.88 4.63 13.88 11.9 0 6.41-3.83 10.44-13.09 13.94l16.79-.66v8.53h-31.72z" id="path54"/><path class="st0" d="M291.84 179.31c9.72 0 16.19 6.74 16.19 16.85 0 10.57-6.67 17.51-16.92 17.51-9.85 0-16.32-6.74-16.32-16.92 0-10.5 6.81-17.44 17.05-17.44zm-.59 26.18c3.97 0 6.41-3.44 6.41-8.92 0-5.62-2.31-9.05-6.08-9.05-3.9 0-6.41 3.57-6.41 8.99-.01 5.61 2.31 8.98 6.08 8.98z" id="path56"/><path class="st0" d="M313.91 204.43c4.03-1.65 7.8-3.3 10.24-4.63 5.35-2.84 7.4-5.09 7.4-7.93 0-2.58-2.05-4.1-5.42-4.1-3.5 0-6.48 1.06-10.11 3.63v-8.92c3.83-2.38 7.47-3.37 12.03-3.37 8.46 0 13.88 4.63 13.88 11.9 0 6.41-3.83 10.44-13.09 13.94l16.79-.66v8.53h-31.72z" id="path58"/><path class="st0" d="M362.02 191.14l-11.76 3.5v-9.05l21.94-6.74v33.97h-10.18z" id="path60"/></g></g></g></svg>